<svg xmlns="http://www.w3.org/2000/svg" width="544" height="306" viewBox="0 0 544 306">
  <defs>
    <linearGradient id="bg3" x1="0%" y1="0%" x2="100%" y2="100%">
      <stop offset="0%" style="stop-color:#0c0a09;stop-opacity:1" />
      <stop offset="100%" style="stop-color:#1c1917;stop-opacity:1" />
    </linearGradient>
  </defs>
  <rect width="544" height="306" fill="url(#bg3)"/>
  <!-- Edge device icon -->
  <rect x="60" y="80" width="100" height="140" rx="8" fill="#1e293b" stroke="#10b981" stroke-width="2"/>
  <rect x="70" y="90" width="80" height="50" rx="4" fill="#0f172a"/>
  <circle cx="110" cy="175" r="20" fill="#10b981" opacity="0.3"/>
  <circle cx="110" cy="175" r="10" fill="#10b981"/>
  <text x="110" y="210" fill="#94a3b8" font-family="monospace" font-size="10" text-anchor="middle">Jetson</text>
  <!-- Cloud to Edge arrow -->
  <path d="M180 150 L240 150" stroke="#64748b" stroke-width="2" stroke-dasharray="5,5"/>
  <!-- Optimization steps -->
  <rect x="260" y="60" width="100" height="55" rx="6" fill="#1e293b" stroke="#f97316" stroke-width="2"/>
  <text x="310" y="85" fill="#f97316" font-family="system-ui" font-size="11" text-anchor="middle" font-weight="bold">Quantization</text>
  <text x="310" y="102" fill="#94a3b8" font-family="monospace" font-size="9" text-anchor="middle">FP32→INT8</text>
  <rect x="260" y="125" width="100" height="55" rx="6" fill="#1e293b" stroke="#8b5cf6" stroke-width="2"/>
  <text x="310" y="150" fill="#8b5cf6" font-family="system-ui" font-size="11" text-anchor="middle" font-weight="bold">TensorRT</text>
  <text x="310" y="167" fill="#94a3b8" font-family="monospace" font-size="9" text-anchor="middle">GPU Optimized</text>
  <rect x="260" y="190" width="100" height="55" rx="6" fill="#1e293b" stroke="#06b6d4" stroke-width="2"/>
  <text x="310" y="215" fill="#06b6d4" font-family="system-ui" font-size="11" text-anchor="middle" font-weight="bold">Pruning</text>
  <text x="310" y="232" fill="#94a3b8" font-family="monospace" font-size="9" text-anchor="middle">50% Smaller</text>
  <!-- Result metrics -->
  <rect x="390" y="90" width="130" height="130" rx="8" fill="#1e293b" stroke="#22c55e" stroke-width="2"/>
  <text x="455" y="120" fill="#f8fafc" font-family="system-ui" font-size="12" text-anchor="middle">Performance</text>
  <text x="455" y="155" fill="#22c55e" font-family="monospace" font-size="24" text-anchor="middle" font-weight="bold">+30%</text>
  <text x="455" y="180" fill="#94a3b8" font-family="monospace" font-size="11" text-anchor="middle">Inference Speed</text>
  <text x="455" y="205" fill="#ec4899" font-family="monospace" font-size="14" text-anchor="middle">32ms latency</text>
  <!-- Title -->
  <text x="272" y="280" fill="#f8fafc" font-family="system-ui" font-size="16" text-anchor="middle" font-weight="bold">Edge AI & Model Optimization</text>
</svg>