<svg xmlns="http://www.w3.org/2000/svg" width="544" height="306" viewBox="0 0 544 306">
  <defs>
    <linearGradient id="bg1" x1="0%" y1="0%" x2="100%" y2="100%">
      <stop offset="0%" style="stop-color:#1a1a2e;stop-opacity:1" />
      <stop offset="100%" style="stop-color:#16213e;stop-opacity:1" />
    </linearGradient>
    <linearGradient id="accent1" x1="0%" y1="0%" x2="100%" y2="0%">
      <stop offset="0%" style="stop-color:#ec4899;stop-opacity:1" />
      <stop offset="100%" style="stop-color:#8b5cf6;stop-opacity:1" />
    </linearGradient>
  </defs>
  <rect width="544" height="306" fill="url(#bg1)"/>
  <!-- Neural network nodes -->
  <circle cx="100" cy="80" r="15" fill="#ec4899" opacity="0.8"/>
  <circle cx="100" cy="153" r="15" fill="#ec4899" opacity="0.8"/>
  <circle cx="100" cy="226" r="15" fill="#ec4899" opacity="0.8"/>
  <circle cx="220" cy="100" r="15" fill="#8b5cf6" opacity="0.8"/>
  <circle cx="220" cy="206" r="15" fill="#8b5cf6" opacity="0.8"/>
  <circle cx="340" cy="153" r="15" fill="#06b6d4" opacity="0.8"/>
  <!-- Connections -->
  <line x1="115" y1="80" x2="205" y2="100" stroke="#ec4899" stroke-width="2" opacity="0.4"/>
  <line x1="115" y1="80" x2="205" y2="206" stroke="#ec4899" stroke-width="2" opacity="0.4"/>
  <line x1="115" y1="153" x2="205" y2="100" stroke="#ec4899" stroke-width="2" opacity="0.4"/>
  <line x1="115" y1="153" x2="205" y2="206" stroke="#ec4899" stroke-width="2" opacity="0.4"/>
  <line x1="115" y1="226" x2="205" y2="100" stroke="#ec4899" stroke-width="2" opacity="0.4"/>
  <line x1="115" y1="226" x2="205" y2="206" stroke="#ec4899" stroke-width="2" opacity="0.4"/>
  <line x1="235" y1="100" x2="325" y2="153" stroke="#8b5cf6" stroke-width="2" opacity="0.4"/>
  <line x1="235" y1="206" x2="325" y2="153" stroke="#8b5cf6" stroke-width="2" opacity="0.4"/>
  <!-- Text box -->
  <rect x="380" y="80" width="140" height="146" rx="8" fill="#1e293b" stroke="url(#accent1)" stroke-width="2"/>
  <text x="450" y="120" fill="#f8fafc" font-family="monospace" font-size="12" text-anchor="middle">Intent:</text>
  <text x="450" y="145" fill="#ec4899" font-family="monospace" font-size="14" text-anchor="middle" font-weight="bold">search_logs</text>
  <text x="450" y="175" fill="#f8fafc" font-family="monospace" font-size="12" text-anchor="middle">Confidence:</text>
  <text x="450" y="200" fill="#22c55e" font-family="monospace" font-size="14" text-anchor="middle" font-weight="bold">94.2%</text>
  <!-- Title -->
  <text x="272" y="280" fill="#f8fafc" font-family="system-ui" font-size="16" text-anchor="middle" font-weight="bold">Intent Detection & NLP</text>
</svg>