<svg xmlns="http://www.w3.org/2000/svg" width="544" height="306" viewBox="0 0 544 306">
  <defs>
    <linearGradient id="bg2" x1="0%" y1="0%" x2="100%" y2="100%">
      <stop offset="0%" style="stop-color:#0f172a;stop-opacity:1" />
      <stop offset="100%" style="stop-color:#1e1b4b;stop-opacity:1" />
    </linearGradient>
  </defs>
  <rect width="544" height="306" fill="url(#bg2)"/>
  <!-- Pipeline boxes -->
  <rect x="40" y="60" width="80" height="50" rx="6" fill="#1e293b" stroke="#ec4899" stroke-width="2"/>
  <text x="80" y="90" fill="#f8fafc" font-family="monospace" font-size="11" text-anchor="middle">Data</text>
  <rect x="160" y="60" width="80" height="50" rx="6" fill="#1e293b" stroke="#8b5cf6" stroke-width="2"/>
  <text x="200" y="90" fill="#f8fafc" font-family="monospace" font-size="11" text-anchor="middle">Train</text>
  <rect x="280" y="60" width="80" height="50" rx="6" fill="#1e293b" stroke="#06b6d4" stroke-width="2"/>
  <text x="320" y="90" fill="#f8fafc" font-family="monospace" font-size="11" text-anchor="middle">Registry</text>
  <rect x="400" y="60" width="80" height="50" rx="6" fill="#1e293b" stroke="#22c55e" stroke-width="2"/>
  <text x="440" y="90" fill="#f8fafc" font-family="monospace" font-size="11" text-anchor="middle">Deploy</text>
  <!-- Arrows -->
  <path d="M120 85 L155 85" stroke="#64748b" stroke-width="2" fill="none" marker-end="url(#arrow)"/>
  <path d="M240 85 L275 85" stroke="#64748b" stroke-width="2" fill="none"/>
  <path d="M360 85 L395 85" stroke="#64748b" stroke-width="2" fill="none"/>
  <!-- MLFlow icon area -->
  <rect x="140" y="140" width="120" height="80" rx="8" fill="#1e293b" stroke="#f97316" stroke-width="2"/>
  <text x="200" y="175" fill="#f97316" font-family="system-ui" font-size="14" text-anchor="middle" font-weight="bold">MLFlow</text>
  <text x="200" y="200" fill="#94a3b8" font-family="monospace" font-size="10" text-anchor="middle">Experiment Tracking</text>
  <!-- Kubernetes -->
  <rect x="290" y="140" width="120" height="80" rx="8" fill="#1e293b" stroke="#326ce5" stroke-width="2"/>
  <text x="350" y="175" fill="#326ce5" font-family="system-ui" font-size="14" text-anchor="middle" font-weight="bold">Kubernetes</text>
  <text x="350" y="200" fill="#94a3b8" font-family="monospace" font-size="10" text-anchor="middle">Model Serving</text>
  <!-- Metrics -->
  <rect x="80" y="240" width="160" height="45" rx="6" fill="#22c55e" fill-opacity="0.1" stroke="#22c55e" stroke-width="1"/>
  <text x="160" y="268" fill="#22c55e" font-family="monospace" font-size="12" text-anchor="middle">90% Faster ML Cycle</text>
  <rect x="260" y="240" width="200" height="45" rx="6" fill="#ec4899" fill-opacity="0.1" stroke="#ec4899" stroke-width="1"/>
  <text x="360" y="268" fill="#ec4899" font-family="monospace" font-size="12" text-anchor="middle">End-to-End Automation</text>
</svg>